<svg width="547" height="348" viewBox="0 0 547 348" fill="none" xmlns="http://www.w3.org/2000/svg">
<g filter="url(#filter0_d_1286_567)">
<path d="M512.903 18H33.7231C27.2486 18 22 23.2486 22 29.7231V309.279C22 315.753 27.2486 321.002 33.7231 321.002H512.903C519.377 321.002 524.626 315.753 524.626 309.279V29.7231C524.626 23.2486 519.377 18 512.903 18Z" fill="white"/>
</g>
<g filter="url(#filter1_d_1286_567)">
<path d="M420.147 154.928H314.714V295.948H420.147V154.928Z" fill="white"/>
<path d="M325.229 178.546H410.568" stroke="#E3E3E3" stroke-width="2.65595" stroke-linecap="round"/>
<path d="M325.229 217.025H410.568" stroke="#E3E3E3" stroke-width="2.65595" stroke-linecap="round"/>
<path d="M325.229 255.505H410.568" stroke="#E3E3E3" stroke-width="2.65595" stroke-linecap="round"/>
<path d="M325.229 287.571H410.568" stroke="#E3E3E3" stroke-width="2.65595" stroke-linecap="round"/>
<path d="M325.229 197.786H410.568" stroke="#E3E3E3" stroke-width="2.65595" stroke-linecap="round"/>
<path d="M325.229 236.266H410.568" stroke="#E3E3E3" stroke-width="2.65595" stroke-linecap="round"/>
<path d="M325.229 165.719H410.568" stroke="#E3E3E3" stroke-width="2.65595" stroke-linecap="round"/>
<path d="M325.229 204.199H410.568" stroke="#E3E3E3" stroke-width="2.65595" stroke-linecap="round"/>
<path d="M325.229 242.678H410.568" stroke="#E3E3E3" stroke-width="2.65595" stroke-linecap="round"/>
<path d="M325.229 274.745H410.568" stroke="#E3E3E3" stroke-width="2.65595" stroke-linecap="round"/>
<path d="M325.229 184.959H410.568" stroke="#E3E3E3" stroke-width="2.65595" stroke-linecap="round"/>
<path d="M325.229 223.439H410.568" stroke="#E3E3E3" stroke-width="2.65595" stroke-linecap="round"/>
<path d="M325.229 261.918H410.568" stroke="#E3E3E3" stroke-width="2.65595" stroke-linecap="round"/>
<path d="M325.229 172.133H410.568" stroke="#E3E3E3" stroke-width="2.65595" stroke-linecap="round"/>
<path d="M325.229 210.612H410.568" stroke="#E3E3E3" stroke-width="2.65595" stroke-linecap="round"/>
<path d="M325.229 249.092H410.568" stroke="#E3E3E3" stroke-width="2.65595" stroke-linecap="round"/>
<path d="M325.229 281.158H410.568" stroke="#E3E3E3" stroke-width="2.65595" stroke-linecap="round"/>
<path d="M325.229 191.372H410.568" stroke="#E3E3E3" stroke-width="2.65595" stroke-linecap="round"/>
<path d="M325.229 229.851H410.568" stroke="#E3E3E3" stroke-width="2.65595" stroke-linecap="round"/>
<path d="M325.229 268.332H410.568" stroke="#E3E3E3" stroke-width="2.65595" stroke-linecap="round"/>
</g>
<g filter="url(#filter2_d_1286_567)">
<path d="M400.052 139.856H294.619V280.876H400.052V139.856Z" fill="white"/>
<path d="M305.133 163.474H390.472" stroke="#E3E3E3" stroke-width="2.65595" stroke-linecap="round"/>
<path d="M305.133 201.953H390.472" stroke="#E3E3E3" stroke-width="2.65595" stroke-linecap="round"/>
<path d="M305.133 240.433H390.472" stroke="#E3E3E3" stroke-width="2.65595" stroke-linecap="round"/>
<path d="M305.133 272.5H390.472" stroke="#E3E3E3" stroke-width="2.65595" stroke-linecap="round"/>
<path d="M305.133 182.714H390.472" stroke="#E3E3E3" stroke-width="2.65595" stroke-linecap="round"/>
<path d="M305.133 221.193H390.472" stroke="#E3E3E3" stroke-width="2.65595" stroke-linecap="round"/>
<path d="M305.133 150.647H390.472" stroke="#E3E3E3" stroke-width="2.65595" stroke-linecap="round"/>
<path d="M305.133 189.127H390.472" stroke="#E3E3E3" stroke-width="2.65595" stroke-linecap="round"/>
<path d="M305.133 227.607H390.472" stroke="#E3E3E3" stroke-width="2.65595" stroke-linecap="round"/>
<path d="M305.133 259.673H390.472" stroke="#E3E3E3" stroke-width="2.65595" stroke-linecap="round"/>
<path d="M305.133 169.887H390.472" stroke="#E3E3E3" stroke-width="2.65595" stroke-linecap="round"/>
<path d="M305.133 208.367H390.472" stroke="#E3E3E3" stroke-width="2.65595" stroke-linecap="round"/>
<path d="M305.133 246.847H390.472" stroke="#E3E3E3" stroke-width="2.65595" stroke-linecap="round"/>
<path d="M305.133 157.061H390.472" stroke="#E3E3E3" stroke-width="2.65595" stroke-linecap="round"/>
<path d="M305.133 195.54H390.472" stroke="#E3E3E3" stroke-width="2.65595" stroke-linecap="round"/>
<path d="M305.133 234.02H390.472" stroke="#E3E3E3" stroke-width="2.65595" stroke-linecap="round"/>
<path d="M305.133 266.086H390.472" stroke="#E3E3E3" stroke-width="2.65595" stroke-linecap="round"/>
<path d="M305.133 176.3H390.472" stroke="#E3E3E3" stroke-width="2.65595" stroke-linecap="round"/>
<path d="M305.133 214.78H390.472" stroke="#E3E3E3" stroke-width="2.65595" stroke-linecap="round"/>
<path d="M305.133 253.26H390.472" stroke="#E3E3E3" stroke-width="2.65595" stroke-linecap="round"/>
</g>
<g filter="url(#filter3_d_1286_567)">
<path d="M376.636 118.505H271.203V259.525H376.636V118.505Z" fill="white"/>
<path d="M281.718 142.122H367.057" stroke="#E3E3E3" stroke-width="2.65595" stroke-linecap="round"/>
<path d="M281.718 180.602H367.057" stroke="#E3E3E3" stroke-width="2.65595" stroke-linecap="round"/>
<path d="M281.718 219.081H367.057" stroke="#E3E3E3" stroke-width="2.65595" stroke-linecap="round"/>
<path d="M281.718 251.148H367.057" stroke="#E3E3E3" stroke-width="2.65595" stroke-linecap="round"/>
<path d="M281.718 161.362H367.057" stroke="#E3E3E3" stroke-width="2.65595" stroke-linecap="round"/>
<path d="M281.718 199.841H367.057" stroke="#E3E3E3" stroke-width="2.65595" stroke-linecap="round"/>
<path d="M281.718 129.295H367.057" stroke="#E3E3E3" stroke-width="2.65595" stroke-linecap="round"/>
<path d="M281.718 167.775H367.057" stroke="#E3E3E3" stroke-width="2.65595" stroke-linecap="round"/>
<path d="M281.718 206.255H367.057" stroke="#E3E3E3" stroke-width="2.65595" stroke-linecap="round"/>
<path d="M281.718 238.321H367.057" stroke="#E3E3E3" stroke-width="2.65595" stroke-linecap="round"/>
<path d="M281.718 148.535H367.057" stroke="#E3E3E3" stroke-width="2.65595" stroke-linecap="round"/>
<path d="M281.718 187.015H367.057" stroke="#E3E3E3" stroke-width="2.65595" stroke-linecap="round"/>
<path d="M281.718 225.494H367.057" stroke="#E3E3E3" stroke-width="2.65595" stroke-linecap="round"/>
<path d="M281.718 135.709H367.057" stroke="#E3E3E3" stroke-width="2.65595" stroke-linecap="round"/>
<path d="M281.718 174.188H367.057" stroke="#E3E3E3" stroke-width="2.65595" stroke-linecap="round"/>
<path d="M281.718 212.668H367.057" stroke="#E3E3E3" stroke-width="2.65595" stroke-linecap="round"/>
<path d="M281.718 244.734H367.057" stroke="#E3E3E3" stroke-width="2.65595" stroke-linecap="round"/>
<path d="M281.718 154.949H367.057" stroke="#E3E3E3" stroke-width="2.65595" stroke-linecap="round"/>
<path d="M281.718 193.428H367.057" stroke="#E3E3E3" stroke-width="2.65595" stroke-linecap="round"/>
<path d="M281.718 231.908H367.057" stroke="#E3E3E3" stroke-width="2.65595" stroke-linecap="round"/>
</g>
<g filter="url(#filter4_d_1286_567)">
<path d="M231.937 118.505H126.504V259.525H231.937V118.505Z" fill="white"/>
</g>
<path d="M136.078 141.45H221.417" stroke="#E3E3E3" stroke-width="2.65595" stroke-linecap="round"/>
<path d="M136.078 129.219H221.417" stroke="#E3E3E3" stroke-width="2.65595" stroke-linecap="round"/>
<path d="M136.078 147.566H221.214" stroke="#E3E3E3" stroke-width="2.65595" stroke-linecap="round"/>
<path d="M136.078 135.335H221.417" stroke="#E3E3E3" stroke-width="2.65595" stroke-linecap="round"/>
<path d="M136.078 153.681H221.214" stroke="#E3E3E3" stroke-width="2.65595" stroke-linecap="round"/>
<path d="M136.078 159.797H221.417" stroke="#E3E3E3" stroke-width="2.65595" stroke-linecap="round"/>
<path d="M136.078 166.233H170.358" stroke="#E3E3E3" stroke-width="2.65595" stroke-linecap="round"/>
<path d="M133.563 91H131.111L133.058 82.036C133.251 81.0056 133.532 79.8929 133.903 78.6977C133.512 79.0755 133.048 79.4258 132.512 79.7486L130.586 80.9541L129.493 79.2025L134.728 75.9363H136.768L133.563 91ZM148.009 91H138.437L138.808 89.1454L143.661 84.7973C144.87 83.7051 145.687 82.9118 146.113 82.4172C146.546 81.9227 146.858 81.4659 147.051 81.0469C147.243 80.621 147.339 80.1676 147.339 79.6868C147.339 79.1029 147.167 78.6427 146.824 78.3061C146.487 77.9627 146.01 77.791 145.392 77.791C144.911 77.791 144.433 77.894 143.959 78.1001C143.486 78.3061 142.902 78.6805 142.208 79.2231L141.023 77.5746C141.847 76.9083 142.641 76.4343 143.403 76.1527C144.166 75.8642 144.949 75.72 145.752 75.72C146.996 75.72 147.985 76.0394 148.72 76.6782C149.455 77.317 149.822 78.1791 149.822 79.2644C149.822 80.0062 149.688 80.6965 149.42 81.3354C149.152 81.9742 148.73 82.6302 148.153 83.3033C147.576 83.9696 146.601 84.89 145.227 86.0646L142.022 88.7848V88.8672H148.431L148.009 91ZM156.53 81.6548C157.773 81.6548 158.762 82.0119 159.497 82.7263C160.239 83.4338 160.61 84.4127 160.61 85.6628C160.61 86.7687 160.369 87.7407 159.889 88.5787C159.408 89.4167 158.707 90.0658 157.787 90.526C156.866 90.9794 155.754 91.2061 154.448 91.2061C152.978 91.2061 151.759 90.9347 150.791 90.3921V88.1562C151.938 88.8431 153.112 89.1866 154.314 89.1866C155.503 89.1866 156.43 88.9015 157.096 88.3314C157.763 87.7613 158.096 86.9713 158.096 85.9616C158.096 85.2404 157.883 84.6634 157.457 84.2306C157.031 83.791 156.385 83.5712 155.52 83.5712C154.867 83.5712 154.095 83.6914 153.202 83.9318L152.295 83.2312L154.356 75.9363H161.702L161.238 78.0898H156.025L154.933 81.8402C155.571 81.7166 156.104 81.6548 156.53 81.6548ZM126.531 111.035C126.161 111.035 125.855 110.987 125.612 110.893V109.721C125.875 109.803 126.11 109.844 126.315 109.844C126.866 109.844 127.23 109.423 127.407 108.58L128.746 102.276H127.641L127.771 101.622L128.968 101.153L129.097 100.586C129.278 99.7717 129.554 99.1939 129.924 98.8526C130.298 98.5072 130.826 98.3345 131.509 98.3345C131.982 98.3345 132.416 98.4229 132.81 98.5997L132.434 99.6853C132.13 99.5702 131.85 99.5126 131.595 99.5126C131.312 99.5126 131.083 99.601 130.911 99.7778C130.742 99.9546 130.612 100.245 130.522 100.648L130.411 101.178H131.824L131.595 102.276H130.183L128.807 108.771C128.643 109.548 128.373 110.12 127.999 110.486C127.625 110.852 127.136 111.035 126.531 111.035ZM136.246 101.055C136.501 101.055 136.723 101.079 136.912 101.129L136.598 102.479C136.376 102.422 136.166 102.393 135.969 102.393C135.45 102.393 134.988 102.625 134.581 103.09C134.174 103.555 133.89 104.163 133.729 104.916L133.076 108H131.62L133.076 101.178H134.211L134.081 102.442H134.137C134.478 101.949 134.819 101.595 135.16 101.382C135.502 101.164 135.864 101.055 136.246 101.055ZM140.582 102.165C140.188 102.165 139.815 102.342 139.466 102.695C139.12 103.049 138.872 103.516 138.72 104.096H138.898C139.671 104.096 140.276 103.987 140.712 103.769C141.148 103.547 141.366 103.234 141.366 102.831C141.366 102.621 141.3 102.459 141.168 102.344C141.037 102.225 140.841 102.165 140.582 102.165ZM139.645 108.123C138.835 108.123 138.201 107.895 137.745 107.439C137.293 106.982 137.066 106.345 137.066 105.527C137.066 104.712 137.225 103.956 137.541 103.257C137.862 102.554 138.294 102.011 138.837 101.628C139.384 101.246 139.994 101.055 140.669 101.055C141.331 101.055 141.845 101.205 142.211 101.505C142.581 101.801 142.766 102.222 142.766 102.769C142.766 103.518 142.422 104.104 141.736 104.527C141.053 104.947 140.079 105.156 138.812 105.156H138.547L138.534 105.348V105.527C138.534 105.983 138.65 106.341 138.88 106.6C139.114 106.859 139.462 106.988 139.922 106.988C140.218 106.988 140.512 106.949 140.804 106.871C141.096 106.793 141.442 106.659 141.841 106.47V107.624C141.446 107.805 141.082 107.932 140.749 108.006C140.42 108.084 140.052 108.123 139.645 108.123ZM147.219 102.165C146.825 102.165 146.452 102.342 146.103 102.695C145.757 103.049 145.509 103.516 145.356 104.096H145.535C146.308 104.096 146.913 103.987 147.349 103.769C147.785 103.547 148.003 103.234 148.003 102.831C148.003 102.621 147.937 102.459 147.805 102.344C147.674 102.225 147.478 102.165 147.219 102.165ZM146.282 108.123C145.472 108.123 144.838 107.895 144.382 107.439C143.93 106.982 143.703 106.345 143.703 105.527C143.703 104.712 143.862 103.956 144.178 103.257C144.499 102.554 144.931 102.011 145.474 101.628C146.021 101.246 146.631 101.055 147.306 101.055C147.968 101.055 148.482 101.205 148.848 101.505C149.218 101.801 149.403 102.222 149.403 102.769C149.403 103.518 149.059 104.104 148.373 104.527C147.69 104.947 146.716 105.156 145.449 105.156H145.184L145.171 105.348V105.527C145.171 105.983 145.287 106.341 145.517 106.6C145.751 106.859 146.099 106.988 146.559 106.988C146.855 106.988 147.149 106.949 147.441 106.871C147.733 106.793 148.079 106.659 148.478 106.47V107.624C148.083 107.805 147.719 107.932 147.386 108.006C147.057 108.084 146.689 108.123 146.282 108.123ZM155.503 108.123C154.923 108.123 154.465 107.916 154.128 107.5C153.79 107.081 153.622 106.493 153.622 105.736C153.622 104.906 153.764 104.128 154.047 103.405C154.335 102.681 154.73 102.109 155.232 101.69C155.733 101.266 156.284 101.055 156.885 101.055C157.284 101.055 157.627 101.149 157.915 101.338C158.203 101.523 158.427 101.795 158.587 102.153H158.649L159.031 101.178H160.142L158.686 108H157.563L157.693 106.914H157.656C157.006 107.72 156.289 108.123 155.503 108.123ZM156.034 106.951C156.371 106.951 156.702 106.793 157.027 106.476C157.352 106.156 157.619 105.728 157.829 105.193C158.038 104.659 158.143 104.075 158.143 103.442C158.143 103.08 158.046 102.79 157.853 102.572C157.66 102.35 157.407 102.239 157.095 102.239C156.745 102.239 156.416 102.397 156.108 102.714C155.799 103.031 155.552 103.462 155.367 104.009C155.182 104.552 155.09 105.115 155.09 105.699C155.09 106.119 155.172 106.433 155.337 106.643C155.505 106.849 155.738 106.951 156.034 106.951ZM163.479 108.123C162.673 108.123 162.048 107.905 161.603 107.47C161.159 107.034 160.937 106.411 160.937 105.601C160.937 104.749 161.087 103.976 161.388 103.281C161.692 102.582 162.117 102.037 162.664 101.647C163.211 101.252 163.832 101.055 164.527 101.055C165.202 101.055 165.812 101.18 166.359 101.431L165.927 102.566C165.426 102.348 164.971 102.239 164.564 102.239C163.947 102.239 163.433 102.556 163.022 103.189C162.611 103.818 162.405 104.597 162.405 105.527C162.405 105.983 162.52 106.335 162.751 106.581C162.981 106.828 163.3 106.951 163.707 106.951C164.011 106.951 164.295 106.906 164.558 106.816C164.825 106.725 165.093 106.614 165.36 106.483V107.685C164.784 107.977 164.157 108.123 163.479 108.123ZM169.363 108.123C168.557 108.123 167.932 107.905 167.488 107.47C167.044 107.034 166.822 106.411 166.822 105.601C166.822 104.749 166.972 103.976 167.272 103.281C167.576 102.582 168.002 102.037 168.549 101.647C169.096 101.252 169.717 101.055 170.412 101.055C171.086 101.055 171.697 101.18 172.244 101.431L171.812 102.566C171.31 102.348 170.856 102.239 170.449 102.239C169.832 102.239 169.318 102.556 168.907 103.189C168.495 103.818 168.29 104.597 168.29 105.527C168.29 105.983 168.405 106.335 168.635 106.581C168.865 106.828 169.184 106.951 169.591 106.951C169.896 106.951 170.179 106.906 170.442 106.816C170.71 106.725 170.977 106.614 171.244 106.483V107.685C170.669 107.977 170.042 108.123 169.363 108.123ZM177.32 103.67C177.32 103.23 177.219 102.887 177.018 102.64C176.816 102.389 176.528 102.264 176.154 102.264C175.772 102.264 175.428 102.412 175.124 102.708C174.824 103 174.59 103.399 174.421 103.904C174.256 104.406 174.174 104.943 174.174 105.514C174.174 105.971 174.275 106.32 174.476 106.563C174.682 106.805 174.984 106.927 175.383 106.927C175.753 106.927 176.086 106.787 176.382 106.507C176.678 106.228 176.909 105.837 177.073 105.335C177.238 104.83 177.32 104.274 177.32 103.67ZM178.782 103.732C178.782 104.562 178.632 105.319 178.332 106.002C178.031 106.68 177.618 107.202 177.092 107.568C176.57 107.93 175.967 108.111 175.284 108.111C174.495 108.111 173.868 107.877 173.403 107.408C172.939 106.935 172.706 106.293 172.706 105.483C172.706 104.665 172.852 103.915 173.144 103.232C173.44 102.549 173.853 102.019 174.384 101.641C174.914 101.258 175.527 101.067 176.222 101.067C177.024 101.067 177.651 101.305 178.103 101.782C178.556 102.259 178.782 102.909 178.782 103.732ZM182.489 101.178L181.693 104.941C181.566 105.52 181.502 105.917 181.502 106.131C181.502 106.678 181.763 106.951 182.285 106.951C182.581 106.951 182.875 106.834 183.167 106.6C183.459 106.365 183.718 106.032 183.945 105.601C184.171 105.165 184.346 104.655 184.469 104.071L185.08 101.178H186.517L185.08 108H183.938L184.068 106.736H184.019C183.681 107.213 183.33 107.564 182.964 107.79C182.598 108.012 182.203 108.123 181.78 108.123C181.229 108.123 180.803 107.967 180.503 107.655C180.203 107.342 180.052 106.894 180.052 106.31C180.052 106.051 180.077 105.796 180.126 105.545C180.176 105.29 180.225 105.035 180.275 104.78L181.033 101.178H182.489ZM191.149 108L192.025 103.855C192.099 103.485 192.136 103.216 192.136 103.047C192.136 102.508 191.871 102.239 191.34 102.239C191.044 102.239 190.752 102.356 190.464 102.591C190.176 102.825 189.917 103.164 189.687 103.608C189.457 104.048 189.284 104.548 189.169 105.107L188.565 108H187.109L188.565 101.178H189.699L189.57 102.442H189.625C189.967 101.957 190.318 101.606 190.68 101.388C191.042 101.166 191.435 101.055 191.858 101.055C192.409 101.055 192.835 101.211 193.135 101.523C193.439 101.836 193.592 102.28 193.592 102.856C193.592 103.139 193.544 103.512 193.45 103.972L192.605 108H191.149ZM197.077 106.951C197.356 106.951 197.667 106.888 198.008 106.76V107.858C197.864 107.928 197.669 107.99 197.422 108.043C197.175 108.097 196.929 108.123 196.682 108.123C195.555 108.123 194.992 107.616 194.992 106.6C194.992 106.365 195.025 106.096 195.09 105.792L195.837 102.276H194.838L194.967 101.597L196.139 101.092L196.935 99.6606H197.835L197.515 101.178H199.235L198.995 102.276H197.286L196.534 105.804C196.48 106.03 196.454 106.219 196.454 106.372C196.454 106.548 196.505 106.69 196.608 106.797C196.711 106.9 196.867 106.951 197.077 106.951Z" fill="#4C9459"/>
<path d="M285.621 75.9363L283.539 85.7864C283.155 87.6205 282.44 88.984 281.396 89.8769C280.352 90.763 278.968 91.2061 277.244 91.2061C275.753 91.2061 274.599 90.842 273.782 90.1139C272.971 89.3858 272.566 88.3383 272.566 86.9713C272.566 86.4012 272.635 85.8174 272.772 85.2198L274.761 75.9363H277.203L275.224 85.261C275.08 85.8654 275.008 86.4081 275.008 86.8889C275.008 87.5896 275.211 88.1356 275.616 88.5272C276.028 88.9118 276.65 89.1042 277.481 89.1042C278.477 89.1042 279.267 88.8294 279.851 88.2799C280.435 87.7235 280.86 86.8237 281.128 85.5804L283.179 75.9363H285.621ZM292.658 91L294.121 84.0761C294.245 83.4579 294.306 83.0079 294.306 82.7263C294.306 81.8265 293.863 81.3766 292.977 81.3766C292.483 81.3766 291.995 81.5723 291.514 81.9639C291.033 82.3554 290.601 82.9221 290.216 83.6639C289.831 84.3989 289.543 85.2335 289.35 86.1677L288.341 91H285.909L288.341 79.6044H290.237L290.02 81.7166H290.113C290.683 80.906 291.27 80.3187 291.875 79.9547C292.479 79.5838 293.135 79.3983 293.843 79.3983C294.763 79.3983 295.474 79.6593 295.976 80.1814C296.484 80.7034 296.738 81.4453 296.738 82.4069C296.738 82.8809 296.659 83.5025 296.501 84.2718L295.089 91H292.658ZM300.767 91H298.356L301.756 74.9678H304.177L300.767 91ZM307.083 76.8018C307.083 76.3347 307.217 75.9569 307.485 75.6684C307.752 75.38 308.13 75.2357 308.618 75.2357C308.982 75.2357 309.277 75.3284 309.504 75.5139C309.731 75.6925 309.844 75.9672 309.844 76.3382C309.844 76.8259 309.707 77.2105 309.432 77.4922C309.157 77.7738 308.797 77.9146 308.35 77.9146C307.986 77.9146 307.684 77.8253 307.443 77.6467C307.203 77.4681 307.083 77.1865 307.083 76.8018ZM306.598 91H304.167L306.598 79.6044H309.02L306.598 91ZM317.809 79.3983C319.32 79.3983 320.192 80.2054 320.426 81.8196H320.508C321.023 81.0228 321.607 80.4218 322.26 80.0165C322.919 79.6044 323.603 79.3983 324.31 79.3983C325.224 79.3983 325.917 79.6628 326.391 80.1917C326.872 80.7137 327.113 81.4521 327.113 82.4069C327.113 82.8465 327.037 83.4682 326.886 84.2718L325.443 91H323.022L324.496 84.0761C324.626 83.4235 324.691 82.9667 324.691 82.7057C324.691 81.8196 324.276 81.3766 323.445 81.3766C322.703 81.3766 322.009 81.8024 321.363 82.6542C320.725 83.5059 320.257 84.6359 319.962 86.044L318.921 91H316.5L317.973 84.0761C318.09 83.5128 318.149 83.0766 318.149 82.7675C318.149 81.8402 317.747 81.3766 316.943 81.3766C316.188 81.3766 315.487 81.8127 314.841 82.6851C314.202 83.5575 313.728 84.7183 313.419 86.1677L312.41 91H309.978L312.41 79.6044H314.305L314.089 81.7166H314.182C315.198 80.1711 316.407 79.3983 317.809 79.3983ZM331.646 76.8018C331.646 76.3347 331.78 75.9569 332.048 75.6684C332.316 75.38 332.694 75.2357 333.181 75.2357C333.545 75.2357 333.841 75.3284 334.067 75.5139C334.294 75.6925 334.408 75.9672 334.408 76.3382C334.408 76.8259 334.27 77.2105 333.995 77.4922C333.721 77.7738 333.36 77.9146 332.914 77.9146C332.549 77.9146 332.247 77.8253 332.007 77.6467C331.766 77.4681 331.646 77.1865 331.646 76.8018ZM331.162 91H328.73L331.162 79.6044H333.583L331.162 91ZM338.745 89.2484C339.212 89.2484 339.731 89.1419 340.301 88.929V90.763C340.061 90.8798 339.734 90.9828 339.322 91.0721C338.91 91.1614 338.498 91.2061 338.086 91.2061C336.204 91.2061 335.263 90.3578 335.263 88.6611C335.263 88.2696 335.318 87.8197 335.428 87.3114L336.674 81.4384H335.005L335.221 80.305L337.179 79.4601L338.508 77.0697H340.013L339.477 79.6044H342.351L341.95 81.4384H339.096L337.839 87.332C337.749 87.7098 337.705 88.0257 337.705 88.2799C337.705 88.5753 337.79 88.8122 337.962 88.9908C338.134 89.1625 338.395 89.2484 338.745 89.2484ZM348.647 81.2529C347.987 81.2529 347.366 81.5483 346.782 82.139C346.205 82.7298 345.789 83.5094 345.535 84.4779H345.834C347.125 84.4779 348.135 84.2959 348.863 83.9318C349.591 83.5609 349.955 83.0389 349.955 82.3657C349.955 82.0154 349.846 81.7441 349.626 81.5517C349.406 81.3525 349.08 81.2529 348.647 81.2529ZM347.081 91.2061C345.728 91.2061 344.67 90.8248 343.907 90.0624C343.152 89.2999 342.774 88.2352 342.774 86.8683C342.774 85.5083 343.038 84.2444 343.567 83.0766C344.103 81.902 344.824 80.9953 345.731 80.3565C346.645 79.7177 347.665 79.3983 348.791 79.3983C349.897 79.3983 350.756 79.649 351.367 80.1505C351.985 80.645 352.294 81.3491 352.294 82.2627C352.294 83.5128 351.721 84.4916 350.574 85.1992C349.433 85.8998 347.805 86.2501 345.69 86.2501H345.247L345.226 86.5695V86.8683C345.226 87.6308 345.418 88.2284 345.803 88.6611C346.195 89.0939 346.775 89.3102 347.544 89.3102C348.039 89.3102 348.53 89.245 349.018 89.1145C349.506 88.984 350.083 88.7607 350.749 88.4447V90.3715C350.089 90.6737 349.481 90.8867 348.925 91.0103C348.376 91.1408 347.761 91.2061 347.081 91.2061ZM359.311 79.3983C360.541 79.3983 361.461 80.0096 362.072 81.2323H362.155C362.244 80.2294 362.371 79.3708 362.536 78.6565L363.319 74.9678H365.72L362.32 91H360.424L360.62 89.1866H360.547C359.943 89.9147 359.359 90.4333 358.796 90.7424C358.233 91.0515 357.635 91.2061 357.003 91.2061C356.021 91.2061 355.251 90.8592 354.695 90.1654C354.139 89.4648 353.86 88.4757 353.86 87.198C353.86 85.7899 354.104 84.4745 354.592 83.2518C355.087 82.0291 355.746 81.0812 356.57 80.408C357.395 79.7349 358.308 79.3983 359.311 79.3983ZM357.93 89.2484C358.494 89.2484 359.05 88.9668 359.599 88.4035C360.156 87.8403 360.599 87.1053 360.929 86.1986C361.265 85.2919 361.433 84.3749 361.433 83.4476C361.433 82.8225 361.282 82.3211 360.98 81.9433C360.685 81.5655 360.231 81.3766 359.62 81.3766C359.036 81.3766 358.49 81.641 357.982 82.1699C357.474 82.6988 357.068 83.4235 356.766 84.344C356.464 85.2644 356.313 86.202 356.313 87.1568C356.313 88.5512 356.852 89.2484 357.93 89.2484ZM274.565 108.123C273.821 108.123 273.268 107.761 272.906 107.038H272.844C272.815 107.437 272.764 107.817 272.69 108.179L272.098 111.035H270.661L272.746 101.178H273.881L273.751 102.338H273.807C274.452 101.482 275.159 101.055 275.928 101.055C276.516 101.055 276.977 101.266 277.31 101.69C277.643 102.114 277.81 102.702 277.81 103.454C277.81 104.293 277.666 105.078 277.378 105.81C277.09 106.538 276.697 107.106 276.2 107.513C275.706 107.92 275.161 108.123 274.565 108.123ZM275.386 102.239C275.052 102.239 274.721 102.403 274.392 102.732C274.064 103.057 273.794 103.489 273.584 104.028C273.379 104.566 273.276 105.124 273.276 105.699C273.276 106.094 273.371 106.402 273.56 106.624C273.753 106.842 274.024 106.951 274.374 106.951C274.724 106.951 275.05 106.791 275.355 106.47C275.659 106.145 275.9 105.714 276.076 105.175C276.253 104.632 276.342 104.067 276.342 103.479C276.342 102.652 276.023 102.239 275.386 102.239ZM283.318 101.055C283.573 101.055 283.795 101.079 283.984 101.129L283.669 102.479C283.447 102.422 283.238 102.393 283.04 102.393C282.522 102.393 282.06 102.625 281.652 103.09C281.245 103.555 280.962 104.163 280.801 104.916L280.147 108H278.692L280.147 101.178H281.282L281.153 102.442H281.208C281.55 101.949 281.891 101.595 282.232 101.382C282.574 101.164 282.935 101.055 283.318 101.055ZM287.654 102.165C287.259 102.165 286.887 102.342 286.538 102.695C286.192 103.049 285.943 103.516 285.791 104.096H285.97C286.743 104.096 287.348 103.987 287.784 103.769C288.219 103.547 288.437 103.234 288.437 102.831C288.437 102.621 288.372 102.459 288.24 102.344C288.108 102.225 287.913 102.165 287.654 102.165ZM286.717 108.123C285.906 108.123 285.273 107.895 284.817 107.439C284.364 106.982 284.138 106.345 284.138 105.527C284.138 104.712 284.297 103.956 284.613 103.257C284.934 102.554 285.366 102.011 285.908 101.628C286.455 101.246 287.066 101.055 287.74 101.055C288.402 101.055 288.916 101.205 289.282 101.505C289.653 101.801 289.838 102.222 289.838 102.769C289.838 103.518 289.494 104.104 288.808 104.527C288.125 104.947 287.15 105.156 285.884 105.156H285.619L285.606 105.348V105.527C285.606 105.983 285.721 106.341 285.952 106.6C286.186 106.859 286.534 106.988 286.994 106.988C287.29 106.988 287.584 106.949 287.876 106.871C288.168 106.793 288.514 106.659 288.912 106.47V107.624C288.518 107.805 288.154 107.932 287.821 108.006C287.492 108.084 287.124 108.123 286.717 108.123ZM295.173 101.055C296.078 101.055 296.6 101.538 296.74 102.504H296.789C297.098 102.027 297.447 101.667 297.838 101.425C298.232 101.178 298.642 101.055 299.065 101.055C299.612 101.055 300.027 101.213 300.311 101.53C300.599 101.842 300.743 102.284 300.743 102.856C300.743 103.119 300.698 103.491 300.607 103.972L299.744 108H298.294L299.176 103.855C299.254 103.464 299.293 103.191 299.293 103.035C299.293 102.504 299.045 102.239 298.547 102.239C298.103 102.239 297.688 102.494 297.301 103.004C296.919 103.514 296.639 104.19 296.462 105.033L295.839 108H294.39L295.272 103.855C295.342 103.518 295.377 103.257 295.377 103.072C295.377 102.516 295.136 102.239 294.655 102.239C294.203 102.239 293.783 102.5 293.397 103.022C293.014 103.545 292.73 104.239 292.545 105.107L291.941 108H290.485L291.941 101.178H293.076L292.946 102.442H293.002C293.61 101.517 294.334 101.055 295.173 101.055ZM303.457 99.5003C303.457 99.2206 303.537 98.9945 303.697 98.8218C303.858 98.649 304.084 98.5627 304.376 98.5627C304.594 98.5627 304.771 98.6182 304.906 98.7292C305.042 98.8361 305.11 99.0006 305.11 99.2227C305.11 99.5146 305.028 99.7449 304.863 99.9135C304.699 100.082 304.483 100.166 304.216 100.166C303.998 100.166 303.817 100.113 303.673 100.006C303.529 99.8991 303.457 99.7305 303.457 99.5003ZM303.167 108H301.711L303.167 101.178H304.617L303.167 108ZM308.021 101.178L307.226 104.941C307.098 105.52 307.034 105.917 307.034 106.131C307.034 106.678 307.296 106.951 307.818 106.951C308.114 106.951 308.408 106.834 308.7 106.6C308.992 106.365 309.251 106.032 309.477 105.601C309.703 105.165 309.878 104.655 310.001 104.071L310.612 101.178H312.049L310.612 108H309.471L309.6 106.736H309.551C309.214 107.213 308.862 107.564 308.496 107.79C308.13 108.012 307.736 108.123 307.312 108.123C306.761 108.123 306.335 107.967 306.035 107.655C305.735 107.342 305.585 106.894 305.585 106.31C305.585 106.051 305.61 105.796 305.659 105.545C305.708 105.29 305.758 105.035 305.807 104.78L306.566 101.178H308.021ZM317.329 101.055C318.234 101.055 318.756 101.538 318.896 102.504H318.945C319.254 102.027 319.603 101.667 319.994 101.425C320.389 101.178 320.798 101.055 321.221 101.055C321.768 101.055 322.184 101.213 322.467 101.53C322.755 101.842 322.899 102.284 322.899 102.856C322.899 103.119 322.854 103.491 322.763 103.972L321.9 108H320.45L321.332 103.855C321.41 103.464 321.449 103.191 321.449 103.035C321.449 102.504 321.201 102.239 320.703 102.239C320.259 102.239 319.844 102.494 319.457 103.004C319.075 103.514 318.795 104.19 318.618 105.033L317.995 108H316.546L317.428 103.855C317.498 103.518 317.533 103.257 317.533 103.072C317.533 102.516 317.292 102.239 316.811 102.239C316.359 102.239 315.939 102.5 315.553 103.022C315.17 103.545 314.887 104.239 314.702 105.107L314.097 108H312.641L314.097 101.178H315.232L315.102 102.442H315.158C315.767 101.517 316.49 101.055 317.329 101.055ZM329.32 108.123C328.74 108.123 328.282 107.916 327.945 107.5C327.607 107.081 327.439 106.493 327.439 105.736C327.439 104.906 327.581 104.128 327.864 103.405C328.152 102.681 328.547 102.109 329.049 101.69C329.55 101.266 330.101 101.055 330.702 101.055C331.101 101.055 331.444 101.149 331.732 101.338C332.02 101.523 332.244 101.795 332.404 102.153H332.466L332.848 101.178H333.959L332.503 108H331.38L331.51 106.914H331.473C330.823 107.72 330.106 108.123 329.32 108.123ZM329.851 106.951C330.188 106.951 330.519 106.793 330.844 106.476C331.168 106.156 331.436 105.728 331.645 105.193C331.855 104.659 331.96 104.075 331.96 103.442C331.96 103.08 331.863 102.79 331.67 102.572C331.477 102.35 331.224 102.239 330.911 102.239C330.562 102.239 330.233 102.397 329.925 102.714C329.616 103.031 329.369 103.462 329.184 104.009C328.999 104.552 328.907 105.115 328.907 105.699C328.907 106.119 328.989 106.433 329.154 106.643C329.322 106.849 329.554 106.951 329.851 106.951ZM337.296 108.123C336.49 108.123 335.865 107.905 335.42 107.47C334.976 107.034 334.754 106.411 334.754 105.601C334.754 104.749 334.904 103.976 335.205 103.281C335.509 102.582 335.934 102.037 336.481 101.647C337.028 101.252 337.649 101.055 338.344 101.055C339.019 101.055 339.629 101.18 340.176 101.431L339.744 102.566C339.243 102.348 338.788 102.239 338.381 102.239C337.764 102.239 337.25 102.556 336.839 103.189C336.428 103.818 336.222 104.597 336.222 105.527C336.222 105.983 336.337 106.335 336.568 106.581C336.798 106.828 337.117 106.951 337.524 106.951C337.828 106.951 338.112 106.906 338.375 106.816C338.642 106.725 338.91 106.614 339.177 106.483V107.685C338.601 107.977 337.974 108.123 337.296 108.123ZM343.18 108.123C342.374 108.123 341.749 107.905 341.305 107.47C340.861 107.034 340.639 106.411 340.639 105.601C340.639 104.749 340.789 103.976 341.089 103.281C341.393 102.582 341.819 102.037 342.366 101.647C342.913 101.252 343.534 101.055 344.229 101.055C344.903 101.055 345.514 101.18 346.061 101.431L345.629 102.566C345.127 102.348 344.673 102.239 344.266 102.239C343.649 102.239 343.135 102.556 342.724 103.189C342.312 103.818 342.107 104.597 342.107 105.527C342.107 105.983 342.222 106.335 342.452 106.581C342.682 106.828 343.001 106.951 343.408 106.951C343.712 106.951 343.996 106.906 344.259 106.816C344.527 106.725 344.794 106.614 345.061 106.483V107.685C344.486 107.977 343.858 108.123 343.18 108.123ZM351.137 103.67C351.137 103.23 351.036 102.887 350.835 102.64C350.633 102.389 350.345 102.264 349.971 102.264C349.589 102.264 349.245 102.412 348.941 102.708C348.641 103 348.406 103.399 348.238 103.904C348.073 104.406 347.991 104.943 347.991 105.514C347.991 105.971 348.092 106.32 348.293 106.563C348.499 106.805 348.801 106.927 349.2 106.927C349.57 106.927 349.903 106.787 350.199 106.507C350.495 106.228 350.726 105.837 350.89 105.335C351.055 104.83 351.137 104.274 351.137 103.67ZM352.599 103.732C352.599 104.562 352.449 105.319 352.148 106.002C351.848 106.68 351.435 107.202 350.909 107.568C350.386 107.93 349.784 108.111 349.101 108.111C348.312 108.111 347.685 107.877 347.22 107.408C346.755 106.935 346.523 106.293 346.523 105.483C346.523 104.665 346.669 103.915 346.961 103.232C347.257 102.549 347.67 102.019 348.201 101.641C348.731 101.258 349.344 101.067 350.039 101.067C350.841 101.067 351.468 101.305 351.92 101.782C352.373 102.259 352.599 102.909 352.599 103.732ZM356.306 101.178L355.51 104.941C355.383 105.52 355.319 105.917 355.319 106.131C355.319 106.678 355.58 106.951 356.102 106.951C356.398 106.951 356.692 106.834 356.984 106.6C357.276 106.365 357.535 106.032 357.762 105.601C357.988 105.165 358.162 104.655 358.286 104.071L358.896 101.178H360.334L358.896 108H357.755L357.885 106.736H357.836C357.498 107.213 357.147 107.564 356.781 107.79C356.415 108.012 356.02 108.123 355.597 108.123C355.045 108.123 354.62 107.967 354.32 107.655C354.02 107.342 353.869 106.894 353.869 106.31C353.869 106.051 353.894 105.796 353.943 105.545C353.993 105.29 354.042 105.035 354.091 104.78L354.85 101.178H356.306ZM364.966 108L365.842 103.855C365.916 103.485 365.953 103.216 365.953 103.047C365.953 102.508 365.688 102.239 365.157 102.239C364.861 102.239 364.569 102.356 364.281 102.591C363.993 102.825 363.734 103.164 363.504 103.608C363.274 104.048 363.101 104.548 362.986 105.107L362.381 108H360.926L362.381 101.178H363.516L363.387 102.442H363.442C363.784 101.957 364.135 101.606 364.497 101.388C364.859 101.166 365.252 101.055 365.675 101.055C366.226 101.055 366.652 101.211 366.952 101.523C367.256 101.836 367.409 102.28 367.409 102.856C367.409 103.139 367.361 103.512 367.267 103.972L366.422 108H364.966ZM370.894 106.951C371.173 106.951 371.484 106.888 371.825 106.76V107.858C371.681 107.928 371.486 107.99 371.239 108.043C370.992 108.097 370.746 108.123 370.499 108.123C369.372 108.123 368.809 107.616 368.809 106.6C368.809 106.365 368.842 106.096 368.907 105.792L369.654 102.276H368.655L368.784 101.597L369.956 101.092L370.752 99.6606H371.652L371.332 101.178H373.052L372.812 102.276H371.103L370.351 105.804C370.297 106.03 370.271 106.219 370.271 106.372C370.271 106.548 370.322 106.69 370.425 106.797C370.528 106.9 370.684 106.951 370.894 106.951Z" fill="#DC9E00"/>
<path d="M206.897 51.7808L205.91 48.5404H200.947L199.96 51.7808H196.85L201.654 38.1118H205.183L210.007 51.7808H206.897ZM205.221 46.1195C204.308 43.1834 203.793 41.5229 203.675 41.138C203.563 40.7531 203.482 40.449 203.433 40.2255C203.228 41.0201 202.641 42.9847 201.673 46.1195H205.221ZM213.982 51.7808L210.016 41.3708H212.986L214.997 47.302C215.221 48.0532 215.361 48.7639 215.416 49.4343H215.472C215.503 48.8384 215.643 48.1276 215.891 47.302L217.893 41.3708H220.863L216.897 51.7808H213.982ZM228.974 51.7808L228.424 50.3655H228.35C227.872 50.9676 227.378 51.3866 226.869 51.6225C226.366 51.8521 225.708 51.967 224.895 51.967C223.896 51.967 223.107 51.6814 222.53 51.1104C221.959 50.5393 221.674 49.7261 221.674 48.6708C221.674 47.5659 222.058 46.7527 222.828 46.2313C223.604 45.7036 224.771 45.4119 226.329 45.356L228.136 45.3001V44.8439C228.136 43.7886 227.596 43.261 226.515 43.261C225.684 43.261 224.706 43.5124 223.582 44.0152L222.642 42.0971C223.84 41.4701 225.168 41.1566 226.627 41.1566C228.024 41.1566 229.095 41.4608 229.84 42.0691C230.584 42.6775 230.957 43.6024 230.957 44.8439V51.7808H228.974ZM228.136 46.9575L227.037 46.9948C226.211 47.0196 225.597 47.1686 225.193 47.4417C224.79 47.7148 224.588 48.1308 224.588 48.6894C224.588 49.4902 225.047 49.8906 225.966 49.8906C226.624 49.8906 227.149 49.7012 227.54 49.3226C227.937 48.9439 228.136 48.4411 228.136 47.8142V46.9575ZM233.769 38.6798C233.769 37.7549 234.284 37.2925 235.315 37.2925C236.345 37.2925 236.86 37.7549 236.86 38.6798C236.86 39.1206 236.73 39.4651 236.469 39.7134C236.215 39.9555 235.83 40.0765 235.315 40.0765C234.284 40.0765 233.769 39.611 233.769 38.6798ZM236.73 51.7808H233.89V41.3708H236.73V51.7808ZM242.559 51.7808H239.719V37.2925H242.559V51.7808ZM252.159 51.7808L251.609 50.3655H251.535C251.057 50.9676 250.563 51.3866 250.054 51.6225C249.551 51.8521 248.893 51.967 248.08 51.967C247.081 51.967 246.293 51.6814 245.715 51.1104C245.144 50.5393 244.859 49.7261 244.859 48.6708C244.859 47.5659 245.243 46.7527 246.013 46.2313C246.789 45.7036 247.956 45.4119 249.514 45.356L251.321 45.3001V44.8439C251.321 43.7886 250.781 43.261 249.7 43.261C248.869 43.261 247.891 43.5124 246.767 44.0152L245.827 42.0971C247.025 41.4701 248.353 41.1566 249.812 41.1566C251.209 41.1566 252.28 41.4608 253.025 42.0691C253.769 42.6775 254.142 43.6024 254.142 44.8439V51.7808H252.159ZM251.321 46.9575L250.222 46.9948C249.396 47.0196 248.782 47.1686 248.378 47.4417C247.975 47.7148 247.773 48.1308 247.773 48.6894C247.773 49.4902 248.232 49.8906 249.151 49.8906C249.809 49.8906 250.334 49.7012 250.725 49.3226C251.122 48.9439 251.321 48.4411 251.321 47.8142V46.9575ZM262.867 41.1752C264.096 41.1752 265.058 41.6563 265.753 42.6185C266.448 43.5744 266.796 44.8873 266.796 46.5571C266.796 48.2766 266.436 49.6081 265.716 50.5517C265.002 51.4952 264.027 51.967 262.792 51.967C261.569 51.967 260.61 51.5232 259.915 50.6355H259.719L259.244 51.7808H257.075V37.2925H259.915V40.6631C259.915 41.0914 259.878 41.7774 259.803 42.7209H259.915C260.579 41.6905 261.563 41.1752 262.867 41.1752ZM261.954 43.4472C261.253 43.4472 260.74 43.6645 260.418 44.099C260.095 44.5273 259.927 45.2381 259.915 46.2313V46.5385C259.915 47.6559 260.079 48.4566 260.408 48.9408C260.744 49.425 261.271 49.6671 261.991 49.6671C262.575 49.6671 263.037 49.4002 263.379 48.8663C263.726 48.3263 263.9 47.5441 263.9 46.5199C263.9 45.4957 263.726 44.729 263.379 44.22C263.031 43.7048 262.556 43.4472 261.954 43.4472ZM271.982 51.7808H269.142V37.2925H271.982V51.7808ZM279.282 43.1958C278.68 43.1958 278.208 43.3882 277.867 43.7731C277.526 44.1517 277.33 44.6918 277.28 45.3932H281.266C281.253 44.6918 281.07 44.1517 280.716 43.7731C280.362 43.3882 279.884 43.1958 279.282 43.1958ZM279.683 51.967C278.007 51.967 276.697 51.5045 275.753 50.5796C274.81 49.6547 274.338 48.3449 274.338 46.6503C274.338 44.906 274.773 43.5589 275.642 42.6092C276.517 41.6532 277.724 41.1752 279.264 41.1752C280.735 41.1752 281.88 41.5943 282.7 42.4323C283.519 43.2703 283.929 44.428 283.929 45.9054V47.2834H277.215C277.246 48.0904 277.485 48.7205 277.932 49.1736C278.379 49.6268 279.006 49.8533 279.813 49.8533C280.44 49.8533 281.033 49.7882 281.591 49.6578C282.15 49.5274 282.734 49.3195 283.342 49.0339V51.2314C282.845 51.4797 282.315 51.6628 281.75 51.7808C281.185 51.9049 280.496 51.967 279.683 51.967ZM304.674 51.7808H301.387L299.544 44.6297C299.475 44.3752 299.357 43.8507 299.19 43.0561C299.028 42.2554 298.935 41.7184 298.91 41.4453C298.873 41.7805 298.78 42.3205 298.631 43.0654C298.482 43.8041 298.367 44.3318 298.287 44.6483L296.452 51.7808H293.175L289.702 38.1677H292.542L294.283 45.5981C294.587 46.9699 294.807 48.1587 294.944 49.1643C294.981 48.8105 295.065 48.2642 295.195 47.5255C295.332 46.7806 295.459 46.2033 295.577 45.7936L297.56 38.1677H300.288L302.272 45.7936C302.359 46.135 302.467 46.6565 302.598 47.3579C302.728 48.0594 302.827 48.6615 302.896 49.1643C302.958 48.6801 303.057 48.078 303.194 47.3579C303.33 46.6316 303.454 46.045 303.566 45.5981L305.298 38.1677H308.138L304.674 51.7808ZM311.89 46.5571C311.89 47.5876 312.058 48.3666 312.393 48.8943C312.735 49.4219 313.287 49.6857 314.05 49.6857C314.808 49.6857 315.351 49.425 315.68 48.9036C316.015 48.3759 316.183 47.5938 316.183 46.5571C316.183 45.5267 316.015 44.7539 315.68 44.2386C315.345 43.7234 314.795 43.4658 314.032 43.4658C313.275 43.4658 312.728 43.7234 312.393 44.2386C312.058 44.7477 311.89 45.5205 311.89 46.5571ZM319.088 46.5571C319.088 48.2518 318.641 49.5771 317.747 50.5331C316.853 51.489 315.609 51.967 314.013 51.967C313.014 51.967 312.132 51.7497 311.369 51.3152C310.605 50.8745 310.019 50.2444 309.609 49.425C309.199 48.6056 308.994 47.6497 308.994 46.5571C308.994 44.8563 309.438 43.5341 310.326 42.5906C311.214 41.647 312.461 41.1752 314.069 41.1752C315.069 41.1752 315.95 41.3925 316.714 41.827C317.477 42.2616 318.064 42.8854 318.473 43.6986C318.883 44.5118 319.088 45.4646 319.088 46.5571ZM327.245 41.1752C327.629 41.1752 327.949 41.2032 328.204 41.259L327.989 43.9221C327.76 43.86 327.48 43.829 327.151 43.829C326.245 43.829 325.537 44.0617 325.028 44.5273C324.526 44.9929 324.274 45.6446 324.274 46.4827V51.7808H321.434V41.3708H323.585L324.004 43.1213H324.144C324.467 42.5378 324.901 42.0691 325.447 41.7153C326 41.3553 326.599 41.1752 327.245 41.1752ZM333.39 51.967C332.167 51.967 331.205 51.4921 330.503 50.5424C329.808 49.5926 329.461 48.2766 329.461 46.5944C329.461 44.8873 329.814 43.5589 330.522 42.6092C331.236 41.6532 332.217 41.1752 333.464 41.1752C334.774 41.1752 335.774 41.6843 336.463 42.7023H336.556C336.413 41.9264 336.342 41.2342 336.342 40.6259V37.2925H339.191V51.7808H337.012L336.463 50.4306H336.342C335.696 51.4549 334.712 51.967 333.39 51.967ZM334.386 49.7044C335.113 49.7044 335.643 49.4933 335.979 49.0712C336.32 48.6491 336.506 47.9321 336.537 46.9203V46.613C336.537 45.4957 336.363 44.6949 336.016 44.2107C335.674 43.7265 335.116 43.4844 334.34 43.4844C333.707 43.4844 333.213 43.7545 332.859 44.2945C332.512 44.8284 332.338 45.6074 332.338 46.6316C332.338 47.6559 332.515 48.4256 332.869 48.9408C333.222 49.4498 333.728 49.7044 334.386 49.7044ZM349.424 48.6894C349.424 49.7571 349.052 50.5703 348.307 51.129C347.568 51.6876 346.46 51.967 344.982 51.967C344.225 51.967 343.58 51.9142 343.046 51.8087C342.512 51.7094 342.012 51.5604 341.547 51.3618V49.0153C342.074 49.2636 342.667 49.4716 343.325 49.6392C343.989 49.8068 344.573 49.8906 345.076 49.8906C346.106 49.8906 346.621 49.5926 346.621 48.9967C346.621 48.7732 346.553 48.5932 346.416 48.4566C346.28 48.3139 346.044 48.1556 345.709 47.9818C345.374 47.8018 344.927 47.5938 344.368 47.3579C343.567 47.0227 342.977 46.7123 342.599 46.4268C342.226 46.1412 341.953 45.8154 341.779 45.4491C341.612 45.0767 341.528 44.6204 341.528 44.0804C341.528 43.1554 341.885 42.4416 342.599 41.9388C343.319 41.4298 344.337 41.1752 345.653 41.1752C346.907 41.1752 348.127 41.4484 349.312 41.9946L348.456 44.0431C347.934 43.8196 347.447 43.6365 346.994 43.4937C346.541 43.351 346.078 43.2796 345.606 43.2796C344.768 43.2796 344.349 43.5062 344.349 43.9593C344.349 44.2138 344.483 44.4342 344.75 44.6204C345.023 44.8066 345.616 45.0829 346.528 45.4491C347.341 45.7781 347.937 46.0854 348.316 46.3709C348.695 46.6565 348.974 46.9855 349.154 47.3579C349.334 47.7304 349.424 48.1742 349.424 48.6894Z" fill="#252525"/>
<defs>
<filter id="filter0_d_1286_567" x="0" y="0" width="546.626" height="347.002" filterUnits="userSpaceOnUse" color-interpolation-filters="sRGB">
<feFlood flood-opacity="0" result="BackgroundImageFix"/>
<feColorMatrix in="SourceAlpha" type="matrix" values="0 0 0 0 0 0 0 0 0 0 0 0 0 0 0 0 0 0 127 0" result="hardAlpha"/>
<feOffset dy="4"/>
<feGaussianBlur stdDeviation="11"/>
<feColorMatrix type="matrix" values="0 0 0 0 0 0 0 0 0 0 0 0 0 0 0 0 0 0 0.1 0"/>
<feBlend mode="normal" in2="BackgroundImageFix" result="effect1_dropShadow_1286_567"/>
<feBlend mode="normal" in="SourceGraphic" in2="effect1_dropShadow_1286_567" result="shape"/>
</filter>
<filter id="filter1_d_1286_567" x="306.082" y="148.952" width="122.697" height="158.284" filterUnits="userSpaceOnUse" color-interpolation-filters="sRGB">
<feFlood flood-opacity="0" result="BackgroundImageFix"/>
<feColorMatrix in="SourceAlpha" type="matrix" values="0 0 0 0 0 0 0 0 0 0 0 0 0 0 0 0 0 0 127 0" result="hardAlpha"/>
<feOffset dy="2.65595"/>
<feGaussianBlur stdDeviation="4.31591"/>
<feColorMatrix type="matrix" values="0 0 0 0 0 0 0 0 0 0 0 0 0 0 0 0 0 0 0.25 0"/>
<feBlend mode="normal" in2="BackgroundImageFix" result="effect1_dropShadow_1286_567"/>
<feBlend mode="normal" in="SourceGraphic" in2="effect1_dropShadow_1286_567" result="shape"/>
</filter>
<filter id="filter2_d_1286_567" x="285.987" y="133.88" width="122.697" height="158.284" filterUnits="userSpaceOnUse" color-interpolation-filters="sRGB">
<feFlood flood-opacity="0" result="BackgroundImageFix"/>
<feColorMatrix in="SourceAlpha" type="matrix" values="0 0 0 0 0 0 0 0 0 0 0 0 0 0 0 0 0 0 127 0" result="hardAlpha"/>
<feOffset dy="2.65595"/>
<feGaussianBlur stdDeviation="4.31591"/>
<feColorMatrix type="matrix" values="0 0 0 0 0 0 0 0 0 0 0 0 0 0 0 0 0 0 0.25 0"/>
<feBlend mode="normal" in2="BackgroundImageFix" result="effect1_dropShadow_1286_567"/>
<feBlend mode="normal" in="SourceGraphic" in2="effect1_dropShadow_1286_567" result="shape"/>
</filter>
<filter id="filter3_d_1286_567" x="262.571" y="112.529" width="122.697" height="158.284" filterUnits="userSpaceOnUse" color-interpolation-filters="sRGB">
<feFlood flood-opacity="0" result="BackgroundImageFix"/>
<feColorMatrix in="SourceAlpha" type="matrix" values="0 0 0 0 0 0 0 0 0 0 0 0 0 0 0 0 0 0 127 0" result="hardAlpha"/>
<feOffset dy="2.65595"/>
<feGaussianBlur stdDeviation="4.31591"/>
<feColorMatrix type="matrix" values="0 0 0 0 0 0 0 0 0 0 0 0 0 0 0 0 0 0 0.25 0"/>
<feBlend mode="normal" in2="BackgroundImageFix" result="effect1_dropShadow_1286_567"/>
<feBlend mode="normal" in="SourceGraphic" in2="effect1_dropShadow_1286_567" result="shape"/>
</filter>
<filter id="filter4_d_1286_567" x="117.872" y="112.529" width="122.697" height="158.284" filterUnits="userSpaceOnUse" color-interpolation-filters="sRGB">
<feFlood flood-opacity="0" result="BackgroundImageFix"/>
<feColorMatrix in="SourceAlpha" type="matrix" values="0 0 0 0 0 0 0 0 0 0 0 0 0 0 0 0 0 0 127 0" result="hardAlpha"/>
<feOffset dy="2.65595"/>
<feGaussianBlur stdDeviation="4.31591"/>
<feColorMatrix type="matrix" values="0 0 0 0 0 0 0 0 0 0 0 0 0 0 0 0 0 0 0.25 0"/>
<feBlend mode="normal" in2="BackgroundImageFix" result="effect1_dropShadow_1286_567"/>
<feBlend mode="normal" in="SourceGraphic" in2="effect1_dropShadow_1286_567" result="shape"/>
</filter>
</defs>
</svg>
